<?xml version="1.0" encoding="iso-8859-1"?>
<!-- Uploaded to: SVG Repo, www.svgrepo.com, Generator: SVG Repo Mixer Tools -->
<svg fill="#000000" height="800px" width="800px" version="1.1" id="Capa_1" xmlns="http://www.w3.org/2000/svg" xmlns:xlink="http://www.w3.org/1999/xlink" 
	 viewBox="0 0 612 612" xml:space="preserve">
<g>
	<path d="M150.903,552.831l-60.358,55.211C87.732,610.617,84.085,612,80.356,612c-1.162,0-2.328-0.133-3.481-0.408
		c-4.864-1.153-8.843-4.64-10.624-9.31L14.323,466.067c-1.748-4.589-1.159-9.736,1.582-13.806c2.738-4.073,7.288-6.557,12.194-6.663
		l81.506-1.769c6.406-0.163,12.236,3.807,14.476,9.83l30.781,82.774C157.008,542.196,155.441,548.68,150.903,552.831z
		 M594.455,371.585l-35.458-93.008c-9.419-24.719-33.523-41.327-59.972-41.327c-0.891,0-1.769,0.085-2.657,0.121V30.19h45.378
		c8.338,0,15.095-6.756,15.095-15.095S550.085,0,541.747,0h-60.473c-8.338,0-15.095,6.756-15.095,15.095v230.189l-28.463,10.85
		V15.095C437.716,6.756,430.96,0,422.622,0h-60.473c-8.338,0-15.095,6.756-15.095,15.095s6.756,15.095,15.095,15.095h45.378v237.453
		L135.338,371.41c-7.789,2.968-11.695,11.692-8.728,19.481l70.42,184.724c1.428,3.741,4.278,6.759,7.934,8.399
		c1.959,0.875,4.064,1.319,6.171,1.319c1.823,0,3.644-0.329,5.377-0.99l340.84-129.939
		C590.415,441.803,607.062,404.646,594.455,371.585z"/>
</g>
</svg>